<?xml version="1.0" encoding="utf-8"?>
<!-- Generator: Adobe Illustrator 25.4.1, SVG Export Plug-In . SVG Version: 6.00 Build 0)  -->
<svg version="1.1" id="Layer_1" xmlns="http://www.w3.org/2000/svg" xmlns:xlink="http://www.w3.org/1999/xlink" x="0px" y="0px"
	 viewBox="0 0 24 24" style="enable-background:new 0 0 24 24;" xml:space="preserve">
<style type="text/css">
	.st0{fill:#FFFFFF;}
</style>
<path class="st0" d="M4.9,19.2C1,15.4,0.8,9,4.7,5.1S14.9,1,18.8,4.8C18.9,4.9,19,5,19.1,5.1c3.8,4,3.7,10.3-0.2,14.1
	C14.9,22.9,8.8,22.9,4.9,19.2z M6.3,17.7c3.1,3.1,8.2,3.1,11.3,0s3.1-8.2,0-11.3s-8.2-3.1-11.3,0S3.2,14.5,6.3,17.7z M13.4,12
	l1.4,1.4c0.4,0.4,0.4,1,0,1.4s-1,0.4-1.4,0L12,13.4l-1.4,1.4c-0.4,0.4-1,0.4-1.4,0s-0.4-1,0-1.4l0,0l1.4-1.4l-1.4-1.4
	c-0.4-0.4-0.4-1,0-1.4s1-0.4,1.4,0l1.4,1.4l1.4-1.4c0.4-0.4,1-0.4,1.4,0s0.4,1,0,1.4L13.4,12L13.4,12z"/>
</svg>
