<svg id="Layer_1" data-name="Layer 1" xmlns="http://www.w3.org/2000/svg" viewBox="0 0 212.41 146"><defs><style>.cls-1{fill:#a1cd42;}.cls-2,.cls-4,.cls-5{fill:#597836;}.cls-3{fill:none;}.cls-4,.cls-5{font-size:30px;font-family:LucidaCalligraphy-Italic, Lucida Calligraphy;font-style:italic;}.cls-5{letter-spacing:0em;}</style></defs><title>SorrenGoodLogo2</title><text x="2.49" y="-0.49"></text><path class="cls-1" d="M31.07,6.58c1.66-2.82,5.83-1.51,6.2-1.39,8,2.65,12.65,18.46,13,20,0,.1.51,2.35.51,2.36h0s.06,1.67-.32,2c-.69.51-2.78-3.31-6.08-5.62-2.77-1.93-3.23-.59-6.32-2.4-.78-.46-5.6-3.28-7.12-8.68C30.73,12.17,29.77,8.77,31.07,6.58Z" transform="translate(2.49 -0.49)"/><path class="cls-1" d="M21.61,64.23c-2,2.6-6,.79-6.32.62C7.65,61.23,4.92,45,4.76,43.35l-.22-2.41h0s.14-1.67.55-1.9c.74-.43,2.36,3.62,5.37,6.32,2.52,2.26,3.13,1,6,3.16.71.55,5.17,3.95,6,9.49C22.6,58.73,23.15,62.22,21.61,64.23Z" transform="translate(2.49 -0.49)"/><path class="cls-2" d="M43.73,18.85a15.48,15.48,0,0,0-4.36-7.58,15,15,0,0,0-7.7-3.7,19.39,19.39,0,0,0-8.54.4A14.15,14.15,0,0,0,16,12.11a11.81,11.81,0,0,0-2.67,7.51,12.68,12.68,0,0,0,.41,4,7.72,7.72,0,0,0,.75,1.77,3.7,3.7,0,0,0,.48.7,5.24,5.24,0,0,0,.63.61,17.44,17.44,0,0,0,3.56,2c1.31.58,2.67,1.09,4.06,1.55a35.82,35.82,0,0,0,4.16,1.15l2.2.41A19.32,19.32,0,0,1,32,32.5c.78.26,1.47.53,2.18.8s1.43.57,2.14.89a21.57,21.57,0,0,1,4.18,2.38,14.55,14.55,0,0,1,3.44,3.6,15.12,15.12,0,0,1,2,4.53,16.18,16.18,0,0,1-.52,9.66A13.8,13.8,0,0,1,39,61.64a22.71,22.71,0,0,1-18.21,1.59,17,17,0,0,1-7.39-5.47,19.18,19.18,0,0,1-3.59-8.27,19.79,19.79,0,0,0,4.23,7.74A18.17,18.17,0,0,0,17.4,60a16.3,16.3,0,0,0,3.91,1.8,19.32,19.32,0,0,0,8.52.56,22.37,22.37,0,0,0,4.16-1,19.21,19.21,0,0,0,3.87-1.76,11.74,11.74,0,0,0,5-6.17,13.49,13.49,0,0,0,.23-8,13,13,0,0,0-1.65-3.65,11.66,11.66,0,0,0-2.77-2.84A30.42,30.42,0,0,0,31,35.34a17.16,17.16,0,0,0-2-.53l-2.22-.43a40.09,40.09,0,0,1-4.49-1.27c-1.46-.5-2.9-1-4.33-1.7a18,18,0,0,1-4.17-2.5,8.88,8.88,0,0,1-1-1,6.76,6.76,0,0,1-.76-1.16,10.64,10.64,0,0,1-.95-2.39,15.1,15.1,0,0,1-.4-4.88,15.81,15.81,0,0,1,1-4.77,12.73,12.73,0,0,1,2.59-4.19,15.93,15.93,0,0,1,8.38-4.48,20.85,20.85,0,0,1,9.3.07,15.72,15.72,0,0,1,8,4.55A15.12,15.12,0,0,1,43.73,18.85Z" transform="translate(2.49 -0.49)"/><path class="cls-1" d="M209.92,11.45c-.36-2.67-28.6-8.79-39.9.21-2.48,2-6.79,6.78-4.25,10.7,1.5,2.3,4.74,3.33,5.45,3.55,6.69,2.12,13.78-1.26,16.15-2.4,5-2.39,4.29-3.79,9.67-6.87C204.48,12.39,210.08,12.66,209.92,11.45Z" transform="translate(2.49 -0.49)"/><path class="cls-2" d="M153.55,45.94a79,79,0,0,1-1.62,7.88c-2.56,10.9-3.53,12.85-5.1,14.47-.7.73-2.4,2.44-4.39,2.22a3.22,3.22,0,0,1-2-.94,2.89,2.89,0,0,1-.82-2.17c.18-1.16,1.37-1.75,1.31-1.83a3.25,3.25,0,0,0-2.45,2.17c-.43,1.66,1.09,3.22,2.29,3.83a5.13,5.13,0,0,0,3.59.17,7.69,7.69,0,0,0,2.86-1.34A9.21,9.21,0,0,0,150,66.73a35,35,0,0,0,2.68-7c2-7.81,2.34-17.13,3.59-25.23.72-4.66,1.08-7,1.7-8.22,4.92-9.63,19-10.48,18.77-11.37-.14-.61-6.78-.56-13.1,3.13a22.83,22.83,0,0,0-6.44,5.34,5.85,5.85,0,0,1-.63.92c-.31.37-1.58,1.85-3.13,1.81-1.13,0-1.62-.83-2.15-.5a1.35,1.35,0,0,0-.37,1.5c.51,1.28,2.87.4,4.05,1.75.42.48.59,1.14,0,5.87-.27,2.12-.45,3.23-.68,4.82C153.81,42.9,153.85,43.66,153.55,45.94Z" transform="translate(2.49 -0.49)"/><rect class="cls-3" width="152.8" height="146"/><text class="cls-4" transform="translate(48.54 63.63)">orren</text><text class="cls-5" transform="translate(156.53 63.51) scale(0.98 1)">ao</text></svg>