<svg width="360" height="351" viewBox="0 0 360 351" fill="none" xmlns="http://www.w3.org/2000/svg">
<g id="Frame 2">
<path id="Vector" d="M264.174 337.745L122.683 333.727C122.683 333.727 133.333 270.017 99.164 252.333C75.8738 240.275 55.199 183.94 61.0822 145.615C61.1586 145.102 61.2418 144.595 61.3321 144.096C64.3152 126.932 72.8349 113.645 89.118 110.038C141.776 98.3822 179.358 107.422 179.358 107.422C179.358 107.422 188.059 107.533 200.949 109.954C201.407 110.038 201.865 110.128 202.33 110.225C238.823 117.378 306.272 142.84 309.193 233.24C313.21 357.441 264.174 337.745 264.174 337.745Z" fill="white"/>
<path id="Vector_2" d="M200.949 109.954C200.713 116.434 199.242 122.873 196.557 128.999C190.993 141.688 180.857 151.38 168.015 156.292C129.559 171.015 84.6709 156.41 61.9703 140.578C61.88 141.078 60.0764 150.564 60 151.078C70.0529 157.953 119.242 164.59 128.574 164.59C142.741 164.59 156.38 162.238 168.515 157.59C181.704 152.539 192.11 142.583 197.827 129.554C200.554 123.338 202.059 116.802 202.33 110.225C201.865 110.128 201.407 110.038 200.949 109.954Z" fill="#950000"/>
<path id="Vector_3" d="M211.412 118.205L188.858 61.497C188.858 61.497 215.923 15.0995 194.657 9.94428C173.392 4.78901 151.482 32.4986 151.482 32.4986C151.482 32.4986 110.884 18.3216 95.4183 29.921C95.4183 29.921 69.6419 -6.16595 54.1761 0.92255C38.7103 8.01105 59.6714 59.1025 59.6714 59.1025C59.6714 59.1025 27.7554 105.961 52.2429 133.026C76.7305 160.092 168.881 182.001 211.412 118.205Z" fill="white"/>
<g id="Vector_4">
<mask id="path-4-inside-1_0_1" fill="white">
<path d="M259.783 303.803C267.462 307.219 275.484 310.705 283.882 310.371C292.28 310.038 301.117 304.63 302.425 296.328C303.101 292.043 301.761 287.445 303.402 283.429C305.61 278.025 312.731 275.941 318.267 277.793C323.802 279.645 327.869 284.42 330.785 289.477C336.24 298.938 338.427 311.355 332.577 320.578C327.506 328.573 317.889 332.185 308.943 335.284C297.027 339.412 283.724 343.508 272.177 338.438C260.564 333.339 254.239 318.607 258.539 306.675"/>
</mask>
<path d="M259.783 303.803C267.462 307.219 275.484 310.705 283.882 310.371C292.28 310.038 301.117 304.63 302.425 296.328C303.101 292.043 301.761 287.445 303.402 283.429C305.61 278.025 312.731 275.941 318.267 277.793C323.802 279.645 327.869 284.42 330.785 289.477C336.24 298.938 338.427 311.355 332.577 320.578C327.506 328.573 317.889 332.185 308.943 335.284C297.027 339.412 283.724 343.508 272.177 338.438C260.564 333.339 254.239 318.607 258.539 306.675" fill="white"/>
<path d="M302.425 296.328L301.438 296.173L301.438 296.173L302.425 296.328ZM303.402 283.429L302.476 283.051L302.476 283.051L303.402 283.429ZM318.267 277.793L318.584 276.845L318.584 276.845L318.267 277.793ZM330.785 289.477L331.651 288.977L331.651 288.977L330.785 289.477ZM332.577 320.578L331.733 320.042L331.733 320.042L332.577 320.578ZM308.943 335.284L309.271 336.229L309.271 336.229L308.943 335.284ZM272.177 338.438L272.579 337.523L272.579 337.523L272.177 338.438ZM259.377 304.717C267.018 308.116 275.253 311.715 283.922 311.371L283.842 309.372C275.716 309.695 267.905 306.322 260.189 302.889L259.377 304.717ZM283.922 311.371C288.309 311.196 292.806 309.7 296.391 307.153C299.98 304.604 302.708 300.959 303.413 296.484L301.438 296.173C300.834 299.999 298.489 303.209 295.233 305.523C291.973 307.839 287.853 309.213 283.842 309.372L283.922 311.371ZM303.413 296.484C303.769 294.226 303.595 291.867 303.551 289.757C303.506 287.586 303.591 285.611 304.328 283.807L302.476 283.051C301.572 285.263 301.506 287.595 301.552 289.798C301.599 292.063 301.757 294.145 301.438 296.173L303.413 296.484ZM304.328 283.807C305.3 281.427 307.375 279.726 309.918 278.834C312.464 277.94 315.4 277.889 317.95 278.741L318.584 276.845C315.598 275.846 312.205 275.911 309.255 276.947C306.301 277.984 303.711 280.027 302.476 283.051L304.328 283.807ZM317.95 278.741C323.14 280.478 327.048 284.997 329.919 289.976L331.651 288.977C328.691 283.843 324.465 278.812 318.584 276.845L317.95 278.741ZM329.919 289.976C335.284 299.28 337.298 311.267 331.733 320.042L333.422 321.113C339.555 311.443 337.197 298.595 331.651 288.977L329.919 289.976ZM331.733 320.042C326.878 327.696 317.621 331.22 308.616 334.339L309.271 336.229C318.157 333.151 328.135 329.449 333.422 321.113L331.733 320.042ZM308.616 334.339C302.658 336.403 296.433 338.429 290.278 339.321C284.132 340.211 278.125 339.958 272.579 337.523L271.775 339.354C277.776 341.989 284.194 342.223 290.565 341.3C296.928 340.379 303.313 338.293 309.271 336.229L308.616 334.339ZM272.579 337.523C261.448 332.635 255.358 318.451 259.48 307.014L257.598 306.336C253.12 318.763 259.681 334.043 271.775 339.354L272.579 337.523Z" fill="black" fill-opacity="0.33" mask="url(#path-4-inside-1_0_1)"/>
</g>
<path id="Vector_5" d="M132.736 92.7071C132.736 92.7071 118.861 87.1568 109.841 94.0947L120.248 110.052C120.248 110.052 132.736 92.7071 132.736 92.7071Z" fill="#B82CB2"/>
<path id="Vector_6" d="M59.8889 165.554L85.559 302.23C85.559 302.23 46.7071 341.775 96.6595 341.082C146.612 340.388 132.042 314.718 132.042 314.718L116.085 196.081" fill="white"/>
<path id="Vector_7" d="M95.3989 342.09C81.8716 342.09 73.689 338.989 71.0703 332.865C66.3003 321.71 81.8276 304.697 84.4893 301.899L67.2285 199.716L69.2002 199.383L86.6299 302.566L86.2725 302.93C86.0928 303.113 68.3325 321.379 72.9097 332.08C75.2603 337.576 83.231 340.274 96.646 340.082C115.293 339.823 127.318 335.915 131.42 328.782C135.115 322.358 131.212 315.281 131.172 315.21L131.078 315.043L131.051 314.851L119.951 232.291L121.933 232.024L133.009 314.403C133.666 315.65 137.118 322.861 133.165 329.76C128.637 337.662 116.359 341.808 96.6733 342.082C96.2436 342.087 95.8188 342.09 95.3989 342.09Z" fill="#2F2E41" fill-opacity="0.29"/>
<path id="Vector_8" d="M125.105 165.554L150.775 302.23C150.775 302.23 111.923 341.775 161.875 341.082C211.828 340.388 197.258 314.718 197.258 314.718L181.301 196.081" fill="white"/>
<path id="Vector_9" d="M160.614 342.09C147.087 342.09 138.905 338.989 136.286 332.865C131.521 321.721 147.012 304.73 149.696 301.907L139.385 246.911L141.351 246.543L151.854 302.558L151.488 302.93C151.308 303.113 133.548 321.379 138.126 332.08C140.477 337.576 148.452 340.284 161.861 340.082C180.524 339.822 192.552 335.909 196.646 328.765C200.338 322.321 196.429 315.282 196.389 315.211L196.293 315.043L180.31 196.214L182.292 195.948L198.225 314.403C198.882 315.65 202.334 322.861 198.381 329.76C193.853 337.662 181.575 341.808 161.889 342.082C161.459 342.087 161.034 342.09 160.614 342.09Z" fill="#2F2E41" fill-opacity="0.2"/>
</g>
</svg>
