<svg width="96" height="112" viewBox="0 0 96 112" fill="none" xmlns="http://www.w3.org/2000/svg">
<path d="M54.5 7C54.5 3.41015 51.5899 0.5 48 0.5C44.4101 0.5 41.5 3.41015 41.5 7L54.5 7ZM43.4038 109.596C45.9422 112.135 50.0578 112.135 52.5962 109.596L93.9619 68.2304C96.5004 65.692 96.5004 61.5765 93.9619 59.0381C91.4235 56.4996 87.308 56.4996 84.7696 59.0381L48 95.8076L11.2304 59.0381C8.69204 56.4997 4.57647 56.4997 2.03806 59.0381C-0.500346 61.5765 -0.500346 65.692 2.03806 68.2304L43.4038 109.596ZM41.5 7L41.5 105L54.5 105L54.5 7L41.5 7Z" fill="white"/>
</svg>
