<svg xmlns="http://www.w3.org/2000/svg" enable-background="new 0 0 512 512" version="1" viewBox="0 0 512 512" id="experience-manager"><path fill="#FF7618" d="M93.867,12.8h326.016C470.547,12.8,512,54.253,512,104.918v314.965C512,470.547,470.547,512,419.883,512
			H92.118C41.453,512,0,470.547,0,419.882V106.667C0,54.933,42.134,12.8,93.867,12.8"></path><path fill="#210F00" d="M98.133,34.133h317.482c41.45,0,75.051,33.601,75.051,75.051v306.431c0,41.45-33.602,75.051-75.051,75.051
			H96.384c-41.45,0-75.051-33.601-75.051-75.051V110.933C21.333,68.267,55.466,34.133,98.133,34.133"></path><path fill="#FFE0CB" d="M390.361,266.121c0-19.035-11.407-35.446-27.738-42.788c17.704-40.233-25.561-82.774-64.966-65.121
		c-15.889-35.289-69.36-34.566-84.578,1.431c-40.333-18.937-83.756,24.446-65.83,64.904c-33.713,15.591-33.355,70.599,0.329,85.465
		c-16.493,39.928,25.938,82.421,65.882,66.01c15.341,34.684,70.616,34.377,85.582-0.455c41.356,18.195,85.021-28.001,65.472-67.946
		C379.872,299.833,390.605,283.23,390.361,266.121z M342.13,178.749c10.739,10.635,12.988,27.247,6.848,40.811
		c-27.848,1.902-49.003-20.703-47.156-47.89C315.029,165.588,331.207,167.932,342.13,178.749z M328.352,266.746
		c0.636,14.712,7.641,28.176,17.957,38.072c-28.145-2.13-52.203,25.067-50.559,52.758c-19.993-21.633-53.954-23.931-75.001-2.508
		l0.043,0.046c-1.323,1.268-2.726,2.425-4.195,3.47c1.517-29.278-22.116-53.271-51.471-51.806c0.913-1.266,1.903-2.486,2.984-3.644
		l0.011,0.011c21.642-20.906,18.344-56.448-3.449-75.853c1.27-0.159,2.557-0.26,3.86-0.297v0.017
		c26.876,0.027,48.468-22.005,48.058-48.63c20.943,22.201,57.279,20.561,77.683-2.011c-1.027,27.49,22.161,51.332,50.025,50.875
		C333.789,237.579,327.319,250.877,328.352,266.746z M255.446,139.733c15.454,0,28.83,9.06,35.099,22.147
		c-24.629,23.047-45.469,25.63-70.451,1.591C226.31,149.619,239.995,139.733,255.446,139.733z M167.263,179.974
		c10.577-11.019,28.317-13.804,41.771-6.749c1.148,23.463-14.633,45.278-39.376,45.772v-0.017c-3.156,0-6.238,0.315-9.225,0.898
		C154.697,206.521,156.905,190.434,167.263,179.974z M129.639,267c0-15.259,8.589-28.54,21.181-35.29
		c2.121,3.53,4.692,6.848,7.719,9.852c13.701,13.424,13.766,37.189,0.415,50.918l-0.011-0.011c-3.1,3.13-5.738,6.594-7.897,10.304
		C138.248,296.29,129.639,282.867,129.639,267z M195.375,365.39c-25.589,0.936-44.836-27.753-34.44-51.074
		c29.533-1.555,49.603,19.012,48.155,48.389C204.79,364.444,200.154,365.366,195.375,365.39z M256.135,394.409
		c-15.471,0-28.895-8.894-35.455-21.832c3.893-2.252,7.516-5.025,10.766-8.307l-0.043-0.046
		c20.111-18.857,43.048-8.774,60.514,7.712C285.483,385.224,271.861,394.409,256.135,394.409z M344.442,354.467
		c-10.419,10.824-27.592,13.939-41.162,7.666c-1.431-29.979,19.294-51.466,47.91-49.935
		C358.022,325.892,355.794,343.004,344.442,354.467z M360.617,300.565c-8.274-10.23-18.318-20.079-18.282-34.546
		c-1.771-15.666,8.898-24.479,16.723-35.521C388.735,242.527,389.963,286.843,360.617,300.565z"></path></svg>