<svg width="79" height="59" viewBox="0 0 79 59" fill="none" xmlns="http://www.w3.org/2000/svg">
<path id="Vector" d="M78.9481 4.02959V54.8203C78.9482 55.2967 78.8544 55.7686 78.6721 56.2088C78.4898 56.649 78.2226 57.049 77.8857 57.3859C77.5488 57.7228 77.1488 57.99 76.7086 58.1723C76.2684 58.3546 75.7966 58.4483 75.3201 58.4482H4.57592C4.09946 58.4483 3.62765 58.3546 3.18743 58.1723C2.74721 57.99 2.34721 57.7228 2.01031 57.3859C1.6734 57.049 1.4062 56.649 1.22393 56.2088C1.04166 55.7686 0.94792 55.2967 0.94805 54.8203V4.02959C0.945758 3.61455 1.01955 3.20261 1.16588 2.81421C1.38273 2.19441 1.76547 1.64596 2.27239 1.22858C2.77931 0.811194 3.39099 0.540875 4.04088 0.447021C4.21777 0.418045 4.39668 0.402876 4.57592 0.401672H75.3201C75.4994 0.402876 75.6782 0.418044 75.8551 0.447021C76.505 0.540806 77.1168 0.811108 77.6237 1.2285C78.1306 1.64589 78.5133 2.19437 78.7301 2.81421C78.8764 3.2026 78.9503 3.61454 78.9481 4.02959Z" fill="white"/>
</svg>
