<svg width="1054" height="672" viewBox="0 0 1054 672" fill="none" xmlns="http://www.w3.org/2000/svg">
<g id="bonsai" clip-path="url(#clip0_0_1)">
<path id="Vector" opacity="0.1" d="M762.636 669.489H680.709L657.061 446.068L656.711 442.839V442.83L654.704 423.842L736.659 423.262L739.172 423.244L739.346 425.066L762.636 669.489Z" fill="#02AD02"/>
<path id="Vector_2" opacity="0.1" d="M658.35 444.753L657.061 446.068L436.899 669.489H324.715L603.588 380.475L656.711 442.83L658.35 444.753Z" fill="#02AD02"/>
<path id="Vector_3" d="M993.365 628.992C980.756 642.422 965.526 653.126 948.615 660.443C931.704 667.759 913.472 671.533 895.044 671.531H201.825C157.28 671.549 114.477 654.241 82.4789 623.27L83.4731 623.104C184.629 606.959 343.411 596.554 521.937 596.554C719.583 596.554 893.019 609.305 990.871 628.495C991.708 628.652 992.537 628.817 993.365 628.992Z" fill="#E8EAF2"/>
<path id="Vector_4" opacity="0.3" d="M993.365 629.461C980.756 642.891 965.526 653.595 948.615 660.912C931.704 668.228 913.472 672.002 895.044 672H201.825C157.279 672.016 114.476 654.704 82.4789 623.73L83.4731 623.564C184.629 607.382 343.411 597.014 521.937 597.014C719.583 597.014 893.019 609.765 990.871 628.955C991.708 629.112 992.537 629.277 993.365 629.461Z" fill="#02AD02"/>
<path id="Vector_5" d="M788.429 624.162L780.945 651.697C779.54 656.866 776.473 661.429 772.216 664.683C767.959 667.936 762.748 669.699 757.389 669.7H293.445C288.085 669.699 282.875 667.936 278.618 664.683C274.361 661.429 271.293 656.866 269.888 651.697L262.405 624.162C255.887 600.17 272.935 575.671 297.79 574.558C298.397 574.558 299.005 574.512 299.631 574.512H751.249C751.866 574.512 752.473 574.512 753.09 574.558C777.916 575.671 794.965 600.17 788.429 624.162Z" fill="#034202"/>
<path id="Vector_6" opacity="0.1" d="M743.489 587.042C743.489 616.784 642.489 640.896 517.905 640.896C393.321 640.896 292.322 616.784 292.322 587.042C292.322 582.718 294.448 578.523 298.462 574.512H737.349C741.353 578.523 743.489 582.718 743.489 587.042Z" fill="#A25904"/>
<path id="Vector_7" d="M663.965 485.212C660.448 483.814 656.886 482.397 653.13 481.919C652.753 481.919 652.375 481.845 651.989 481.818C651.989 481.431 651.989 481.054 652.035 480.677C652.237 476.077 653.664 471.33 656.886 468.009C660.108 464.688 664.591 463.05 666.69 459.131C659.016 456.885 651.073 455.693 643.078 455.59C641.044 455.59 638.88 455.59 637.178 456.749C635.088 458.101 634.186 460.659 633.495 463.069C631.378 471.054 629.951 478.874 627.53 486.666L626.895 486.813C618.334 488.653 607.564 487.227 603.634 479.527C604.615 475.644 605.845 471.827 607.316 468.101C611.918 456.648 618.97 446.353 625.938 436.151C630.448 429.533 634.965 422.922 639.488 416.317C632.717 414.277 625.84 412.609 618.887 411.321C617.414 411.045 615.748 410.825 614.523 411.689C613.692 412.398 613.082 413.33 612.765 414.376C606.119 430.677 597.972 448.515 595.662 466.436C594.368 465.734 593.037 465.101 591.676 464.541L570.265 455.415C569.131 455.034 568.108 454.384 567.282 453.52C565.331 451.1 567.282 447.255 570.136 445.967C572.989 444.679 576.22 445.047 579.341 444.771C582.462 444.495 585.904 443.363 587.064 440.475C588.408 437.154 585.84 433.4 582.701 431.662C579.562 429.923 575.871 429.435 572.575 427.982C570.041 426.798 567.818 425.04 566.083 422.847C564.348 420.654 563.148 418.088 562.578 415.351L557.469 415.112C564.208 408.672 571.194 402.499 579.221 397.761C583.097 395.471 587.202 393.529 590.811 390.834C595.563 387.193 599.284 382.378 601.608 376.862C603.932 371.347 604.78 365.322 604.066 359.381C603.606 355.922 602.621 352.343 603.716 349.031C604.637 346.336 606.717 344.266 608.77 342.306L627.263 324.625C615.492 321.946 603.431 320.759 591.363 321.092C588.307 321.184 585.15 321.386 582.416 322.766C577.426 325.287 575.051 330.991 573.1 336.225C571.613 339.913 570.41 343.708 569.501 347.578C568.138 354.109 568.341 361.267 564.649 366.814C561.722 371.211 556.853 373.806 552.48 376.768C540.019 385.25 530.72 397.617 526.033 411.938C525.739 412.858 525.242 414.035 524.671 415.351C513.836 416.271 503.223 418.331 493.198 422.545C480.596 427.844 469.596 436.261 458.798 444.624C446.905 453.823 434.395 464.118 430.216 478.579C425.567 494.633 432.738 512.24 444.217 524.393C453.607 534.319 465.518 541.311 477.531 547.594C485.383 551.697 486.69 550.86 493.585 545.341L512.124 530.492C517.417 526.261 522.802 521.918 526.402 516.178C531.363 508.275 532.588 498.239 538.599 491.091C546.828 481.293 563.609 480.474 572.768 489.407C575.401 491.983 577.693 495.35 581.283 496.206C583.032 496.629 584.965 496.39 586.567 497.126C589.623 498.579 590.084 502.645 591.17 505.81C594.161 514.338 604.324 518.8 613.262 517.521C622.201 516.242 629.905 510.437 635.953 503.722C637.601 501.882 639.23 499.932 641.476 498.837C643.273 498.038 645.217 497.625 647.184 497.622C653.711 497.355 660.196 498.792 665.999 501.79C671.403 504.55 676.125 508.643 681.804 510.796C693.044 515.046 705.609 511.008 716.619 506.196L663.965 485.212Z" fill="#A25904"/>
<path id="Vector_8" opacity="0.1" d="M663.965 485.212C660.448 483.814 656.886 482.397 653.13 481.919C652.753 481.919 652.375 481.845 651.989 481.818C651.989 481.431 651.989 481.054 652.035 480.677C652.237 476.077 653.664 471.33 656.886 468.009C660.108 464.688 664.591 463.05 666.69 459.131C659.016 456.885 651.073 455.693 643.078 455.59C641.044 455.59 638.88 455.59 637.178 456.749C635.088 458.101 634.186 460.659 633.495 463.069C631.378 471.054 629.951 478.874 627.53 486.666L626.895 486.813C618.334 488.653 607.564 487.227 603.634 479.527C604.615 475.644 605.845 471.827 607.316 468.101C611.918 456.648 618.97 446.353 625.938 436.151C630.448 429.533 634.965 422.922 639.488 416.317C632.717 414.277 625.84 412.609 618.887 411.321C617.414 411.045 615.748 410.825 614.523 411.689C613.692 412.398 613.082 413.33 612.765 414.376C606.119 430.677 597.972 448.515 595.662 466.436C594.368 465.734 593.037 465.101 591.676 464.541L570.265 455.415C569.131 455.034 568.108 454.384 567.282 453.52C565.331 451.1 567.282 447.255 570.136 445.967C572.989 444.679 576.22 445.047 579.341 444.771C582.462 444.495 585.904 443.363 587.064 440.475C588.408 437.154 585.84 433.4 582.701 431.662C579.562 429.923 575.871 429.435 572.575 427.982C570.041 426.798 567.818 425.04 566.083 422.847C564.348 420.654 563.148 418.088 562.578 415.351L557.469 415.112C564.208 408.672 571.194 402.499 579.221 397.761C583.097 395.471 587.202 393.529 590.811 390.834C595.563 387.193 599.284 382.378 601.608 376.862C603.932 371.347 604.78 365.322 604.066 359.381C603.606 355.922 602.621 352.343 603.716 349.031C604.637 346.336 606.717 344.266 608.77 342.306L627.263 324.625C615.492 321.946 603.431 320.759 591.363 321.092C588.307 321.184 585.149 321.386 582.416 322.766C577.426 325.287 575.051 330.991 573.1 336.225C571.613 339.913 570.41 343.708 569.501 347.578C568.138 354.109 568.341 361.267 564.649 366.814C561.722 371.211 556.853 373.806 552.48 376.768C540.019 385.25 530.72 397.617 526.033 411.938C525.739 412.858 525.242 414.035 524.671 415.351C513.836 416.271 503.223 418.331 493.198 422.545C480.596 427.844 469.596 436.261 458.798 444.624C446.905 453.823 434.395 464.118 430.216 478.579C425.567 494.633 432.738 512.24 444.217 524.393C453.607 534.319 465.518 541.311 477.531 547.594C485.383 551.697 486.69 550.86 493.585 545.34L512.124 530.492C517.417 526.261 522.802 521.918 526.402 516.178C531.363 508.275 532.588 498.239 538.599 491.091C546.828 481.293 563.609 480.474 572.768 489.407C575.401 491.983 577.693 495.35 581.283 496.206C583.032 496.629 584.965 496.39 586.567 497.126C589.623 498.579 590.084 502.645 591.17 505.81C594.161 514.338 604.324 518.8 613.262 517.521C622.201 516.242 629.905 510.437 635.953 503.722C637.601 501.882 639.23 499.932 641.476 498.837C643.273 498.038 645.217 497.625 647.184 497.622C653.711 497.355 660.196 498.792 665.999 501.79C671.403 504.55 676.125 508.643 681.804 510.796C693.044 515.046 705.609 511.008 716.619 506.196L663.965 485.212Z" fill="#F7FFF7"/>
<path id="Vector_9" d="M627.742 603.703L597.208 589.655C594.76 588.523 592.044 587.116 591.28 584.521C591.008 583.118 591.008 581.675 591.28 580.271C592.015 572.971 590.427 565.624 586.742 559.278C584.45 555.35 581.348 551.817 579.976 547.475C577.049 538.275 582.738 528.533 583.014 518.837C583.318 509.398 578.411 500.318 571.424 493.924C569.353 492.02 567.08 490.244 565.45 487.99C560.719 481.348 562.689 472.351 564.935 464.412L565.515 463.878C565.947 463.455 565.625 461.643 564.834 458.957C573.66 456.605 581.98 452.657 589.384 447.31C591.731 445.608 593.987 443.741 596.748 442.655C600.541 441.137 604.839 441.312 608.669 439.895C615.812 437.237 619.78 429.776 623.103 422.931C630.973 406.749 638.982 390.024 639.976 372.058C633.514 367.062 625.659 364.194 617.497 363.852C616.134 363.796 614.588 363.852 613.695 364.919C613.193 365.596 612.876 366.392 612.774 367.228C609.986 380.051 605.173 392.348 598.516 403.658C595.855 408.41 592.59 412.797 588.804 416.712C584.201 421.312 578.549 424.744 572.989 428.157C568.313 431.018 562.054 433.805 556.742 437.089C553.06 427.632 549.7 419.003 550.133 417.678C554.756 403.25 554.936 387.767 550.648 373.235C549.58 369.629 548.218 366.069 547.887 362.315C547.555 358.562 548.301 354.864 548.596 351.129C549.175 343.723 548.043 336.299 548.089 328.866C548.144 318.801 550.354 308.884 552.554 299.059C546.435 297.966 540.205 297.632 534.005 298.066C532.783 298.07 531.582 298.387 530.516 298.986C528.97 299.988 528.39 301.92 527.865 303.687C523.769 317.403 516.34 329.924 511.931 343.548C507.522 357.173 506.574 373.134 514.775 384.873C517.693 389.04 521.771 392.812 522.416 397.853C522.756 400.521 522.057 403.198 521.357 405.802C520.114 410.466 540.108 460.585 541.222 465.212C541.222 465.341 541.296 465.452 541.323 465.571C540.697 465.709 540.062 465.829 539.427 465.976C538.583 479.009 533.539 491.419 525.048 501.348C523.921 498.144 523.122 494.834 522.664 491.468C521.974 486.408 522.038 481.192 520.464 476.335C518.108 469.085 512.419 463.529 507.448 457.761C498.498 447.35 491.43 435.462 486.561 422.628C482.809 424.02 478.964 425.148 475.055 426.004C472.984 426.464 465.85 426.473 464.727 428.322C462.996 431.082 470.728 443.915 472.256 446.869C477.642 457.255 486.718 465.369 492.048 475.783C494.27 480.405 496.108 485.201 497.543 490.125C500.452 499.324 503.361 508.524 505.589 517.871C502.919 520.631 500.811 523.998 498.519 527.135C490.39 538.187 479.634 547.04 467.221 552.893C465.739 553.593 464.101 554.375 463.465 555.883C463.358 556.141 463.278 556.409 463.226 556.684C458.163 553.114 453.432 549.131 450.136 543.942C448.682 541.642 447.531 539.149 445.948 536.941C440.618 529.517 431.293 526.38 423.662 521.302C420.44 519.168 417.439 516.638 413.877 515.138C409.965 513.482 405.638 513.17 401.404 512.885C397.933 512.645 384.623 509.876 382.91 512.977C380.48 517.365 388.185 523.777 391.269 525.322C396.396 527.889 402.26 528.542 407.617 530.575C412.46 532.564 416.956 535.309 420.937 538.708C422.677 539.99 424.2 541.543 425.448 543.307C426.773 545.377 427.39 547.815 428.504 550.005C432.076 557.024 439.799 560.235 446.712 564.365C444.877 564.445 443.072 564.853 441.382 565.57C436.236 567.907 433.843 573.694 430.492 578.247C427.501 582.286 423.561 585.515 420.265 589.287C416.97 593.059 414.227 597.778 414.475 602.792C414.632 605.966 415.911 609.434 414.227 612.129C418.102 613.804 422.87 615.809 427.068 616.315C431.266 616.821 435.813 616.021 438.952 613.196C439.924 612.16 440.967 611.192 442.072 610.299C444.733 608.523 448.378 609.02 451.222 610.473C454.067 611.927 456.414 614.199 459.019 616.067C462.739 618.699 466.978 620.507 471.453 621.372C475.928 622.237 480.536 622.137 484.969 621.081C486.81 620.639 489.452 620.262 488.881 618.495C484.985 616.678 481.668 613.818 479.298 610.233C476.927 606.648 475.596 602.477 475.451 598.183C478.349 597.63 481.344 597.875 484.113 598.893C486.883 599.911 489.323 601.662 491.173 603.96C488.614 604.071 486.92 607.511 488.412 609.609C493.287 609.512 498.068 608.248 502.354 605.924C506.64 603.6 510.306 600.283 513.045 596.251C515.054 595.428 517.24 595.126 519.397 595.373C521.555 595.619 523.615 596.407 525.387 597.663C527.158 598.918 528.584 600.601 529.53 602.554C530.477 604.508 530.914 606.668 530.802 608.836L544.113 615.404C546.202 616.435 548.421 617.493 550.75 617.336C553.078 617.18 555.453 615.303 555.278 612.985C555.076 610.326 551.882 607.612 553.631 605.625C556.761 607.024 559.154 609.783 562.367 610.989C565.579 612.194 570.311 610.584 570.136 607.162C569.994 606.021 569.552 604.939 568.856 604.024C565.257 598.544 560.472 593.941 554.855 590.556C554.441 587.548 561.299 584.245 563.379 586.49L580.243 605.064C581.555 606.662 583.108 608.046 584.846 609.167C590.875 612.654 598.405 609.167 605.364 609.167C612.894 609.167 620.599 613.454 627.604 610.722C629.445 610.013 631.286 608.275 630.761 606.38C630.347 605.018 628.976 604.31 627.742 603.703Z" fill="#A25904"/>
<path id="Vector_10" d="M673.308 389.15C673.386 384.167 672.471 379.217 670.617 374.59C668.762 369.962 666.005 365.75 662.506 362.198C659.007 358.646 654.836 355.825 650.235 353.899C645.635 351.974 640.697 350.982 635.709 350.982C630.722 350.982 625.784 351.974 621.183 353.899C616.583 355.825 612.412 358.646 608.912 362.198C605.413 365.75 602.656 369.962 600.802 374.59C598.947 379.217 598.032 384.167 598.11 389.15C592.346 389.153 586.659 390.481 581.489 393.031C576.32 395.581 571.807 399.285 568.298 403.856C564.79 408.428 562.38 413.745 561.256 419.395C560.132 425.046 560.323 430.879 561.815 436.444C563.307 442.009 566.06 447.157 569.86 451.489C573.66 455.821 578.406 459.222 583.732 461.428C589.057 463.635 594.819 464.587 600.571 464.213C606.324 463.839 611.913 462.147 616.908 459.27C622.623 462.566 629.106 464.302 635.705 464.302C642.304 464.302 648.786 462.566 654.502 459.27C659.495 462.15 665.085 463.845 670.839 464.221C676.592 464.598 682.355 463.647 687.682 461.442C693.009 459.237 697.758 455.837 701.56 451.505C705.362 447.173 708.116 442.025 709.608 436.459C711.101 430.893 711.293 425.059 710.169 419.407C709.046 413.755 706.636 408.438 703.127 403.865C699.618 399.293 695.103 395.589 689.933 393.039C684.762 390.489 679.074 389.161 673.308 389.16V389.15Z" fill="#025800"/>
<path id="Vector_11" d="M509.133 374.118C509.133 353.364 487.243 336.547 460.253 336.547C433.263 336.547 411.373 353.364 411.373 374.118C384.383 374.118 362.502 390.944 362.502 411.689C362.502 432.434 384.383 449.27 411.373 449.27C419.783 449.315 428.108 447.597 435.813 444.228C443.531 447.554 451.848 449.269 460.253 449.269C468.658 449.269 476.974 447.554 484.693 444.228C492.397 447.597 500.723 449.315 509.133 449.27C536.122 449.27 558.003 432.444 558.003 411.689C558.003 390.935 536.122 374.118 509.133 374.118Z" fill="#025800"/>
<path id="Vector_12" opacity="0.1" d="M417.642 484.338C417.722 479.024 416.745 473.747 414.765 468.814C412.786 463.881 409.845 459.39 406.113 455.604C402.381 451.817 397.933 448.811 393.028 446.758C388.122 444.706 382.857 443.649 377.539 443.649C372.221 443.649 366.956 444.706 362.05 446.758C357.145 448.811 352.697 451.817 348.965 455.604C345.233 459.39 342.292 463.881 340.313 468.814C338.334 473.747 337.356 479.024 337.436 484.338C331.282 484.334 325.21 485.746 319.69 488.464C314.169 491.181 309.348 495.132 305.6 500.01C301.852 504.888 299.278 510.563 298.076 516.594C296.875 522.626 297.078 528.853 298.671 534.794C300.263 540.735 303.203 546.229 307.261 550.853C311.319 555.476 316.388 559.104 322.074 561.456C327.76 563.808 333.911 564.821 340.052 564.416C346.193 564.011 352.158 562.2 357.485 559.121C363.582 562.641 370.498 564.494 377.539 564.494C384.58 564.494 391.496 562.641 397.593 559.121C402.919 562.193 408.882 563.999 415.018 564.4C421.155 564.8 427.301 563.785 432.983 561.432C438.664 559.079 443.727 555.452 447.782 550.831C451.836 546.21 454.773 540.719 456.364 534.783C457.956 528.846 458.16 522.623 456.96 516.595C455.761 510.568 453.19 504.896 449.447 500.02C445.704 495.144 440.888 491.193 435.373 488.474C429.858 485.755 423.791 484.34 417.642 484.338V484.338Z" fill="black"/>
<g id="bush_top">
<path id="Vector_13" d="M673.308 257.634C673.311 253.045 672.469 248.495 670.823 244.212C679.179 241.25 686.219 235.432 690.7 227.787C695.181 220.141 696.814 211.159 695.312 202.427C693.81 193.694 689.269 185.773 682.491 180.062C675.712 174.35 667.133 171.216 658.267 171.213C658.257 162.015 654.873 153.139 648.754 146.268C642.635 139.397 634.207 135.007 625.067 133.93C615.926 132.853 606.708 135.163 599.157 140.424C591.607 145.684 586.25 153.53 584.1 162.474C583.76 162.474 583.419 162.474 583.069 162.474C583.111 153.088 579.636 144.027 573.328 137.073C567.021 130.12 558.337 125.777 548.987 124.901C539.637 124.024 530.297 126.676 522.805 132.336C515.314 137.996 510.213 146.253 508.507 155.482C502.961 151.126 496.302 148.418 489.289 147.667C482.277 146.915 475.194 148.151 468.851 151.232C462.508 154.313 457.16 159.116 453.419 165.091C449.679 171.067 447.695 177.973 447.697 185.022C439.604 185.026 431.73 187.64 425.243 192.475C418.756 197.31 414.003 204.108 411.691 211.858C409.379 219.609 409.631 227.898 412.41 235.493C415.188 243.089 420.345 249.586 427.114 254.018C426.635 256.442 426.391 258.907 426.387 261.378C420.616 261.373 414.922 262.696 409.745 265.243C404.568 267.79 400.047 271.494 396.532 276.068C393.017 280.642 390.603 285.963 389.476 291.619C388.349 297.275 388.539 303.114 390.033 308.684C391.526 314.255 394.283 319.407 398.088 323.742C401.894 328.077 406.647 331.479 411.979 333.684C417.311 335.888 423.08 336.837 428.838 336.456C434.596 336.076 440.189 334.375 445.184 331.488C450.899 334.791 457.384 336.53 463.985 336.53C470.587 336.53 477.072 334.791 482.787 331.488C489.751 335.512 497.823 337.196 505.816 336.29C513.809 335.384 521.299 331.936 527.184 326.456C527.838 326.456 528.491 326.502 529.154 326.502C535.754 326.508 542.238 324.772 547.951 321.469C556.367 326.342 566.346 327.76 575.788 325.425C581.675 329.776 588.705 332.313 596.015 332.725C603.325 333.137 610.596 331.405 616.935 327.744C622.649 331.046 629.132 332.784 635.732 332.784C642.332 332.784 648.816 331.046 654.529 327.744C659.523 330.624 665.113 332.319 670.866 332.695C676.62 333.072 682.383 332.121 687.71 329.916C693.037 327.711 697.785 324.311 701.587 319.979C705.389 315.647 708.143 310.499 709.636 304.933C711.129 299.367 711.321 293.533 710.197 287.881C709.073 282.229 706.663 276.912 703.154 272.339C699.645 267.767 695.131 264.063 689.96 261.513C684.79 258.963 679.102 257.636 673.336 257.634H673.308ZM501.612 261.396C501.607 259.781 501.5 258.168 501.29 256.567C502.21 256.107 503.204 255.647 504.116 255.104C505.624 255.969 507.19 256.731 508.801 257.385C506.943 258.582 505.194 259.94 503.573 261.442C502.928 261.415 502.265 261.396 501.612 261.396Z" fill="#025800"/>
<path id="Vector_14" opacity="0.1" d="M532.937 179.98C541.702 179.98 550.172 183.145 556.786 188.893C563.401 194.641 567.713 202.584 568.93 211.259C569.648 206.311 569.337 201.268 568.015 196.446C566.692 191.623 564.388 187.126 561.247 183.235C558.105 179.344 554.193 176.143 549.756 173.833C545.319 171.523 540.452 170.153 535.461 169.809C530.47 169.466 525.462 170.156 520.75 171.836C516.038 173.517 511.724 176.151 508.078 179.575C504.432 182.999 501.533 187.138 499.562 191.734C497.59 196.329 496.59 201.282 496.623 206.282C496.627 207.959 496.744 209.634 496.973 211.296C498.182 202.62 502.488 194.673 509.097 188.918C515.705 183.164 524.172 179.99 532.937 179.98V179.98Z" fill="black"/>
<path id="Vector_15" opacity="0.1" d="M607.564 244.828C615.535 248.486 621.913 254.9 625.524 262.889C629.134 270.877 629.732 279.901 627.208 288.296C629.89 284.098 631.679 279.395 632.464 274.477C633.25 269.56 633.015 264.534 631.775 259.711C630.535 254.888 628.315 250.371 625.255 246.442C622.194 242.512 618.357 239.253 613.983 236.868C609.609 234.483 604.791 233.022 599.828 232.577C594.866 232.131 589.864 232.71 585.135 234.278C580.405 235.846 576.049 238.369 572.337 241.69C568.624 245.012 565.635 249.061 563.554 253.586C562.859 255.111 562.268 256.681 561.787 258.287C566.508 250.901 573.742 245.471 582.156 242.997C590.569 240.524 599.593 241.174 607.564 244.828V244.828Z" fill="black"/>
<path id="Vector_16" opacity="0.1" d="M501.041 272.381C509.012 276.039 515.39 282.453 519 290.442C522.611 298.43 523.209 307.454 520.685 315.848C521.587 314.435 522.392 312.963 523.097 311.442C527.064 302.696 527.404 292.735 524.042 283.74C520.68 274.744 513.89 267.444 505.158 263.438C496.425 259.432 486.461 259.046 477.443 262.363C468.426 265.68 461.09 272.43 457.04 281.139C456.345 282.664 455.754 284.234 455.273 285.839C459.994 278.456 467.227 273.027 475.638 270.554C484.049 268.08 493.071 268.729 501.041 272.381Z" fill="black"/>
</g>
<path id="Vector_17" opacity="0.1" d="M463.208 388.736C467.156 392.199 469.718 396.972 470.422 402.174C471.125 407.376 469.923 412.657 467.037 417.043C467.799 416.388 468.516 415.681 469.182 414.928C472.989 410.59 474.916 404.918 474.539 399.16C474.162 393.402 471.511 388.029 467.171 384.224C465.021 382.34 462.522 380.898 459.814 379.979C457.107 379.06 454.246 378.684 451.393 378.87C445.631 379.247 440.255 381.896 436.448 386.234C435.778 386.99 435.163 387.793 434.607 388.635C438.583 385.198 443.669 383.315 448.926 383.334C454.183 383.352 459.256 385.271 463.208 388.736Z" fill="black"/>
<g id="bush_R">
<path id="Vector_18" d="M801.132 465.544C801.132 444.799 782.059 427.973 758.521 427.973C734.983 427.973 715.919 444.799 715.919 465.544C692.381 465.544 673.308 482.37 673.308 503.124C673.308 523.878 692.381 540.695 715.919 540.695C723.321 540.713 730.621 538.976 737.22 535.626C743.832 538.941 751.128 540.667 758.526 540.667C765.923 540.667 773.219 538.941 779.831 535.626C786.432 538.967 793.733 540.694 801.132 540.667C824.67 540.667 843.743 523.85 843.743 503.096C843.743 482.342 824.67 465.544 801.132 465.544Z" fill="#025800"/>
<path id="Vector_19" opacity="0.1" d="M805.339 488.938C809.287 492.397 811.85 497.165 812.556 502.364C813.261 507.564 812.061 512.842 809.177 517.227C809.937 516.571 810.65 515.864 811.313 515.111C813.198 512.963 814.641 510.466 815.559 507.761C816.478 505.057 816.855 502.198 816.668 499.347C816.482 496.497 815.735 493.712 814.471 491.15C813.207 488.588 811.45 486.3 809.302 484.417C807.153 482.533 804.654 481.091 801.948 480.173C799.241 479.254 796.381 478.878 793.529 479.065C790.677 479.251 787.889 479.997 785.326 481.261C782.762 482.524 780.473 484.279 778.588 486.427C777.919 487.179 777.304 487.979 776.747 488.818C780.724 485.385 785.81 483.505 791.066 483.527C796.321 483.549 801.391 485.471 805.339 488.938Z" fill="black"/>
</g>
<g id="bush_L">
<path id="Vector_20" d="M415.138 485.59C415.216 480.606 414.301 475.656 412.447 471.029C410.592 466.401 407.835 462.189 404.336 458.637C400.837 455.085 396.666 452.264 392.065 450.339C387.465 448.413 382.527 447.421 377.539 447.421C372.551 447.421 367.614 448.413 363.013 450.339C358.413 452.264 354.241 455.085 350.742 458.637C347.243 462.189 344.486 466.401 342.632 471.029C340.777 475.656 339.862 480.606 339.94 485.59C334.174 485.59 328.485 486.916 323.314 489.465C318.142 492.014 313.627 495.718 310.117 500.29C306.606 504.862 304.196 510.179 303.071 515.831C301.946 521.483 302.137 527.318 303.629 532.884C305.122 538.451 307.875 543.599 311.677 547.932C315.479 552.265 320.227 555.666 325.555 557.871C330.882 560.077 336.645 561.028 342.399 560.651C348.153 560.275 353.743 558.58 358.737 555.699C364.454 558.996 370.939 560.731 377.539 560.731C384.14 560.731 390.624 558.996 396.341 555.699C401.335 558.58 406.925 560.275 412.679 560.651C418.433 561.028 424.196 560.077 429.524 557.871C434.851 555.666 439.599 552.265 443.401 547.932C447.203 543.599 449.956 538.451 451.449 532.884C452.941 527.318 453.132 521.483 452.007 515.831C450.883 510.179 448.472 504.862 444.962 500.29C441.452 495.718 436.936 492.014 431.765 489.465C426.593 486.916 420.904 485.59 415.138 485.59V485.59Z" fill="#025800"/>
<path id="Vector_21" opacity="0.1" d="M378.731 488.625C382.939 485.47 388.148 483.945 393.395 484.332C398.641 484.72 403.569 486.993 407.267 490.732C406.785 489.851 406.241 489.006 405.638 488.202C402.136 483.702 397.007 480.755 391.353 479.995C385.699 479.235 379.973 480.724 375.406 484.14C370.839 487.557 367.797 492.628 366.933 498.263C366.069 503.899 367.453 509.648 370.787 514.274C371.389 515.074 372.044 515.833 372.748 516.546C370.209 511.953 369.416 506.598 370.515 501.467C371.615 496.337 374.533 491.776 378.731 488.625V488.625Z" fill="black"/>
</g>
<path id="Vector_22" opacity="0.1" d="M631.885 407.209C636.093 404.056 641.302 402.532 646.548 402.919C651.793 403.306 656.721 405.579 660.421 409.316C659.938 408.436 659.393 407.59 658.791 406.786C657.101 404.44 654.96 402.455 652.492 400.946C650.025 399.436 647.282 398.434 644.423 397.996C641.564 397.558 638.646 397.694 635.84 398.396C633.034 399.098 630.396 400.352 628.08 402.084C625.765 403.817 623.818 405.993 622.353 408.485C620.888 410.978 619.935 413.738 619.55 416.603C619.165 419.468 619.354 422.381 620.108 425.172C620.862 427.963 622.165 430.576 623.94 432.858C624.543 433.663 625.201 434.426 625.91 435.139C623.37 430.546 622.575 425.19 623.673 420.058C624.77 414.926 627.687 410.363 631.885 407.209Z" fill="black"/>
<path id="Vector_23" d="M592.403 570.023C589.991 568.183 590.295 563.74 590.295 563.74C590.295 563.74 594.502 562.341 596.914 564.209C599.326 566.076 600.264 568.901 599.022 570.501C597.779 572.102 594.815 571.9 592.403 570.023Z" fill="#02AD02"/>
<path id="Vector_24" d="M600.688 618.781C598.276 616.941 598.58 612.497 598.58 612.497C598.58 612.497 602.787 611.099 605.198 612.966C607.61 614.834 608.549 617.658 607.306 619.259C606.064 620.86 603.1 620.657 600.688 618.781Z" fill="#02AD02"/>
<path id="Vector_25" d="M592.403 623.38C589.991 621.54 590.295 617.097 590.295 617.097C590.295 617.097 594.502 615.699 596.914 617.566C599.326 619.434 600.264 622.258 599.022 623.859C597.779 625.459 594.815 625.257 592.403 623.38Z" fill="#02AD02"/>
<path id="Vector_26" d="M649.476 587.502C647.064 585.662 647.368 581.219 647.368 581.219C647.368 581.219 651.575 579.82 653.986 581.688C656.398 583.555 657.337 586.38 656.094 587.98C654.852 589.581 651.887 589.379 649.476 587.502Z" fill="#02AD02"/>
<path id="Vector_27" d="M412.275 445.24C414.162 442.848 418.59 443.198 418.59 443.198C418.59 443.198 419.934 447.42 418.038 449.812C416.141 452.204 413.315 453.115 411.723 451.855C410.13 450.594 410.379 447.632 412.275 445.24Z" fill="#02AD02"/>
<path id="Vector_28" opacity="0.1" d="M440.01 268.139C452.72 268.139 463.024 257.843 463.024 245.141C463.024 232.439 452.72 222.142 440.01 222.142C427.301 222.142 416.997 232.439 416.997 245.141C416.997 257.843 427.301 268.139 440.01 268.139Z" fill="#02AD02"/>
<path id="Vector_29" opacity="0.3" d="M141.3 636.665C141.62 635.819 142.142 635.065 142.82 634.468C143.499 633.872 144.314 633.451 145.194 633.242C146.133 633.031 147.095 632.941 148.057 632.975C153.884 633.077 158.302 635.735 163.623 636.959C168.704 638.164 174.495 638.1 180.064 638.008C183.559 638.062 187.051 637.785 190.493 637.18C196.062 636.002 199.698 633.224 203.086 630.593" fill="#02AD02"/>
<path id="Vector_30" opacity="0.3" d="M791.19 627.465C791.51 626.62 792.032 625.865 792.71 625.269C793.389 624.672 794.204 624.251 795.084 624.043C796.023 623.831 796.985 623.742 797.947 623.776C803.774 623.877 808.192 626.536 813.513 627.759C818.594 628.965 824.384 628.9 829.954 628.808C833.449 628.863 836.941 628.586 840.383 627.98C845.906 626.803 849.588 624.024 852.976 621.393" fill="#02AD02"/>
<path id="Vector_31" opacity="0.3" d="M842.74 647.704C843.059 646.859 843.581 646.105 844.26 645.508C844.939 644.911 845.754 644.49 846.634 644.282C847.572 644.07 848.535 643.981 849.496 644.015C855.323 644.116 859.742 646.775 865.062 647.998C870.144 649.204 875.934 649.139 881.503 649.047C884.998 649.102 888.49 648.825 891.933 648.219C897.456 647.042 901.138 644.263 904.525 641.632" fill="#02AD02"/>
<path id="Vector_32" opacity="0.3" d="M799.475 643.15C799.626 642.899 799.832 642.686 800.077 642.526C800.323 642.367 800.602 642.266 800.893 642.23C801.239 642.168 801.591 642.143 801.942 642.157C804.069 642.157 805.679 642.92 807.622 643.279C809.608 643.568 811.618 643.67 813.624 643.583C814.895 643.597 816.166 643.518 817.425 643.343C819.071 643.058 820.639 642.431 822.028 641.503" fill="#02AD02"/>
<path id="Vector_33" opacity="0.3" d="M808.68 633.031C808.831 632.78 809.037 632.566 809.283 632.407C809.528 632.247 809.807 632.146 810.098 632.111C810.444 632.048 810.796 632.024 811.147 632.037C813.274 632.037 814.885 632.801 816.827 633.159C818.814 633.448 820.823 633.55 822.829 633.463C824.1 633.478 825.371 633.398 826.631 633.224C828.276 632.938 829.844 632.312 831.233 631.384" fill="#02AD02"/>
<path id="Vector_34" opacity="0.3" d="M234.273 616.582C234.436 616.328 234.654 616.113 234.91 615.954C235.167 615.795 235.455 615.695 235.755 615.662C236.115 615.607 236.478 615.585 236.842 615.597C239.051 615.597 240.735 616.297 242.751 616.628C244.824 616.889 246.914 616.981 249.002 616.904C250.325 616.916 251.647 616.842 252.96 616.683C254.651 616.426 256.276 615.845 257.747 614.972" fill="#02AD02"/>
<path id="Vector_35" opacity="0.3" d="M207.578 617.502C207.741 617.248 207.959 617.033 208.215 616.874C208.471 616.715 208.76 616.615 209.06 616.582C209.42 616.527 209.783 616.505 210.146 616.517C212.356 616.517 214.04 617.217 216.056 617.548C218.129 617.809 220.219 617.901 222.307 617.824C223.629 617.836 224.952 617.762 226.265 617.603C227.956 617.346 229.581 616.765 231.052 615.892" fill="#02AD02"/>
<path id="Vector_36" opacity="0.3" d="M195.611 655.064C195.931 654.218 196.453 653.464 197.131 652.867C197.81 652.271 198.625 651.85 199.505 651.641C200.444 651.43 201.406 651.34 202.368 651.375C208.195 651.476 212.613 654.134 217.934 655.358C223.015 656.563 228.805 656.499 234.375 656.407C237.87 656.462 241.362 656.184 244.804 655.579C250.373 654.401 254.009 651.623 257.397 648.992" fill="#02AD02"/>
<path id="Vector_37" d="M250.843 671.503C250.843 671.503 327.394 635.809 356.215 648.33C385.037 660.85 452.732 658.348 452.732 658.348C452.732 658.348 573.026 653.38 586.834 658.348C600.642 663.316 725.944 663.362 732.203 658.348C738.463 653.334 809.905 649.581 821.19 658.348C828.105 663.692 835.686 668.114 843.743 671.503H250.843Z" fill="#E8EAF2"/>
<path id="Vector_38" opacity="0.3" d="M250.843 671.503C250.843 671.503 327.394 629.103 356.215 643.978C385.037 658.854 452.714 655.882 452.714 655.882C452.714 655.882 573.026 649.93 586.816 655.882C600.605 661.835 725.925 661.835 732.185 655.882C738.444 649.93 809.886 645.469 821.172 655.882C827.914 662.132 835.507 667.397 843.725 671.522L250.843 671.503Z" fill="#02AD02"/>
</g>
<defs>
<clipPath id="clip0_0_1">
<rect width="1054" height="672" fill="white"/>
</clipPath>
</defs>
</svg>
