<svg width="446" height="642" viewBox="0 0 446 642" fill="none" xmlns="http://www.w3.org/2000/svg">
<g id="Group 6">
<path id="Path 80" d="M413.821 0.00102288H173.206C161.595 0.000454221 150.329 3.95048 141.26 11.2018C132.191 18.4531 125.86 28.5741 123.306 39.901L1.73006 579.169C0.403935 585.051 0.380556 591.152 1.66157 597.044C2.94259 602.936 5.49699 608.476 9.14564 613.277C12.7943 618.077 17.4489 622.021 22.783 624.833C28.1172 627.644 34.0017 629.254 40.024 629.551L287.379 641.738C300.624 642.39 313.654 638.202 324.038 629.953C334.421 621.704 341.449 609.959 343.809 596.91L412.779 215.643L417.91 217.109L431.11 144.844L425.829 143.524L445.08 37.098C445.905 32.5394 445.714 27.855 444.521 23.3787C443.328 18.9023 441.162 14.7444 438.177 11.2012C435.193 7.65801 431.463 4.8169 427.255 2.8804C423.046 0.943909 418.462 -0.0402727 413.83 -0.00197547L413.821 0.00102288Z" fill="#3F3D56"/>
<path id="Path 81" d="M204.879 11.626H176.795C168.729 11.6261 160.906 14.3847 154.624 19.4439C148.342 24.503 143.979 31.5585 142.259 39.439L25.559 574.307C24.8868 577.387 24.8872 580.575 25.5604 583.654C26.2335 586.734 27.5634 589.631 29.4593 592.15C31.3551 594.668 33.7722 596.747 36.5455 598.245C39.3187 599.744 42.3826 600.626 45.528 600.831L292.079 616.991C299.035 617.447 305.915 615.326 311.406 611.033C316.898 606.739 320.616 600.574 321.852 593.714L421.432 40.876C422.076 37.2979 421.928 33.6219 420.996 30.1075C420.065 26.593 418.374 23.3259 416.042 20.5364C413.71 17.747 410.794 15.5033 407.501 13.9637C404.207 12.4241 400.616 11.6261 396.98 11.626H370.337C367.758 11.626 365.251 12.476 363.204 14.0446C361.157 15.6132 359.685 17.8129 359.014 20.303V20.303C358.422 22.5022 357.121 24.4447 355.313 25.8297C353.506 27.2147 351.291 27.9649 349.014 27.964H222.526C218.068 27.9639 213.773 26.2812 210.502 23.2523C207.23 20.2233 205.222 16.0713 204.879 11.626V11.626Z" fill="white"/>
<path id="Path 93" d="M341.173 385.544C341.652 385.561 342.122 385.404 342.495 385.103C342.869 384.803 343.123 384.378 343.209 383.906L397.732 82.989C397.784 82.703 397.774 82.4091 397.702 82.1275C397.63 81.8458 397.498 81.583 397.315 81.357C397.134 81.1328 396.906 80.9512 396.646 80.8252C396.387 80.6992 396.103 80.6319 395.815 80.628L147.756 77.698H147.733C147.283 77.7018 146.847 77.8584 146.497 78.1422C146.148 78.426 145.905 78.8201 145.808 79.26L81.5321 370.41C81.4693 370.694 81.4685 370.988 81.53 371.273C81.5914 371.557 81.7135 371.825 81.888 372.058C82.0608 372.289 82.2824 372.479 82.537 372.615C82.7916 372.75 83.0729 372.828 83.361 372.843L341.173 385.544Z" fill="#254B15"/>
<path id="Path 94" d="M125.908 405C125.682 405 125.464 405.077 125.287 405.217C125.11 405.357 124.986 405.553 124.935 405.773L122.612 415.729C122.579 415.87 122.577 416.016 122.606 416.157C122.635 416.299 122.694 416.432 122.78 416.549C122.865 416.665 122.975 416.762 123.101 416.832C123.228 416.902 123.368 416.943 123.512 416.954L254.742 426.281C254.985 426.297 255.226 426.223 255.42 426.075C255.613 425.927 255.747 425.713 255.795 425.474L258.029 413.955C258.056 413.815 258.053 413.671 258.02 413.533C257.987 413.394 257.924 413.265 257.837 413.152C257.75 413.04 257.64 412.947 257.514 412.881C257.388 412.814 257.249 412.776 257.107 412.767L125.969 405.002L125.908 405Z" fill="#E6E6E6"/>
<path id="Path 95" d="M285.345 463.262C285.582 463.281 285.817 463.215 286.01 463.076C286.202 462.937 286.339 462.735 286.396 462.504L289.24 450.961C289.275 450.82 289.278 450.672 289.25 450.529C289.222 450.386 289.164 450.251 289.078 450.133C288.992 450.015 288.882 449.918 288.754 449.847C288.627 449.776 288.485 449.734 288.34 449.724L120.751 438.003C120.524 437.985 120.297 438.046 120.109 438.176C119.922 438.306 119.785 438.497 119.722 438.716L116.767 448.691C116.725 448.834 116.715 448.984 116.738 449.131C116.762 449.278 116.817 449.417 116.901 449.54C116.986 449.663 117.096 449.765 117.225 449.839C117.353 449.914 117.497 449.959 117.645 449.971L285.345 463.262Z" fill="#E6E6E6"/>
<path id="Path 96" d="M276.345 500.262C276.582 500.281 276.817 500.215 277.01 500.076C277.202 499.937 277.339 499.735 277.396 499.504L280.24 487.961C280.275 487.82 280.278 487.672 280.25 487.529C280.222 487.386 280.164 487.251 280.078 487.133C279.992 487.015 279.882 486.918 279.754 486.847C279.627 486.776 279.485 486.734 279.34 486.724L111.751 475.003C111.524 474.985 111.297 475.046 111.109 475.176C110.922 475.306 110.785 475.497 110.722 475.716L107.767 485.691C107.725 485.834 107.715 485.984 107.738 486.131C107.762 486.278 107.817 486.417 107.901 486.54C107.986 486.663 108.096 486.765 108.225 486.839C108.353 486.914 108.497 486.959 108.645 486.971L276.345 500.262Z" fill="#E6E6E6"/>
<path id="Path 97" d="M199.16 563.514C199.399 563.539 199.638 563.476 199.834 563.337C200.03 563.199 200.168 562.993 200.224 562.76L206.237 538.709C206.272 538.568 206.277 538.422 206.25 538.279C206.223 538.137 206.165 538.002 206.081 537.884C205.996 537.766 205.888 537.668 205.762 537.596C205.636 537.525 205.495 537.481 205.351 537.469L102.435 528.813C102.195 528.796 101.956 528.866 101.762 529.008C101.568 529.151 101.431 529.358 101.375 529.592L96.246 552.675C96.2152 552.814 96.2141 552.957 96.243 553.096C96.2719 553.235 96.3301 553.366 96.4136 553.481C96.4971 553.596 96.6041 553.691 96.7275 553.761C96.8508 553.832 96.9877 553.875 97.129 553.888L199.16 563.514Z" fill="#254B15"/>
</g>
</svg>
